<?xml version="1.0" encoding="UTF-8"?>
<svg version="1.1" xmlns="http://www.w3.org/2000/svg" width="492" height="184">
<path d="M0 0 C162.36 0 324.72 0 492 0 C492 60.72 492 121.44 492 184 C329.64 184 167.28 184 0 184 C0 123.28 0 62.56 0 0 Z " fill="#FEFEFE" transform="translate(0,0)"/>
<path d="M0 0 C1.07113541 -0.01268417 2.14227081 -0.02536835 3.24586487 -0.03843689 C4.39699265 -0.03550125 5.54812042 -0.03256561 6.73413086 -0.02954102 C7.91994247 -0.03478287 9.10575409 -0.04002472 10.32749939 -0.04542542 C12.83323381 -0.05184702 15.33899838 -0.05050688 17.84472656 -0.04199219 C21.68796094 -0.03347168 25.52971483 -0.06226155 29.37280273 -0.09399414 C31.805745 -0.09560588 34.2386899 -0.09502914 36.67163086 -0.09204102 C37.82478287 -0.10327499 38.97793488 -0.11450897 40.16603088 -0.12608337 C41.23401413 -0.11670242 42.30199738 -0.10732147 43.40234375 -0.09765625 C44.81321007 -0.097407 44.81321007 -0.097407 46.25257874 -0.09715271 C48.63647461 0.40405273 48.63647461 0.40405273 50.44232178 2.09721375 C51.88232277 4.87897698 51.9989628 6.68907028 51.97705078 9.81518555 C51.97671089 11.43641327 51.97671089 11.43641327 51.97636414 13.09039307 C51.96088028 14.25093201 51.94539642 15.41147095 51.92944336 16.60717773 C51.92519852 17.80010437 51.92095367 18.99303101 51.9165802 20.22210693 C51.89978484 24.03298493 51.86212979 27.84333451 51.82397461 31.65405273 C51.80892894 34.23737843 51.79524033 36.82071242 51.78295898 39.40405273 C51.74987842 45.73756642 51.69966985 52.07077183 51.63647461 58.40405273 C52.54574707 57.99268066 52.54574707 57.99268066 53.47338867 57.57299805 C54.27486328 57.21302734 55.07633789 56.85305664 55.90209961 56.48217773 C56.69390625 56.12542969 57.48571289 55.76868164 58.30151367 55.40112305 C62.93680822 53.42176891 67.5569406 51.82353456 72.63647461 52.40405273 C74.63647461 54.40405273 74.63647461 54.40405273 75.01147461 57.34155273 C74.63647461 60.40405273 74.63647461 60.40405273 72.63647461 62.27905273 C71.97647461 62.65030273 71.31647461 63.02155273 70.63647461 63.40405273 C72.61647461 63.89905273 72.61647461 63.89905273 74.63647461 64.40405273 C74.71897461 63.66155273 74.80147461 62.91905273 74.88647461 62.15405273 C75.79593481 58.81936533 76.87380795 57.45631939 79.63647461 55.40405273 C82.65458883 55.58158887 83.47382676 56.24140488 85.63647461 58.40405273 C85.63647461 59.72405273 85.63647461 61.04405273 85.63647461 62.40405273 C86.29647461 62.07405273 86.95647461 61.74405273 87.63647461 61.40405273 C89.96946121 61.36382883 92.30354126 61.36085027 94.63647461 61.40405273 C95.13147461 64.86905273 95.13147461 64.86905273 95.63647461 68.40405273 C87.21032723 74.21281374 78.44152579 77.55938822 68.11694336 77.50170898 C67.09536133 77.49848633 66.0737793 77.49526367 65.02124023 77.49194336 C63.96614258 77.48356445 62.91104492 77.47518555 61.82397461 77.46655273 C60.74954102 77.46204102 59.67510742 77.4575293 58.56811523 77.45288086 C55.92417778 77.44113003 53.28035509 77.42470061 50.63647461 77.40405273 C50.65218506 78.66064697 50.65218506 78.66064697 50.66821289 79.94262695 C50.7022748 83.04743437 50.72736372 86.15214666 50.74633789 89.25708008 C50.76135568 91.26316634 50.78676442 93.26916598 50.81225586 95.27514648 C50.82192383 97.16040039 50.82192383 97.16040039 50.83178711 99.08374023 C50.84749756 100.8276001 50.84749756 100.8276001 50.86352539 102.60668945 C50.63647461 105.40405273 50.63647461 105.40405273 48.63647461 107.40405273 C46.32814026 107.66474915 46.32814026 107.66474915 43.40820312 107.67871094 C42.3168959 107.68824295 41.22558868 107.69777496 40.10121155 107.70759583 C38.91788742 107.70668442 37.73456329 107.70577301 36.51538086 107.70483398 C34.69912453 107.71126167 34.69912453 107.71126167 32.84617615 107.71781921 C30.28140896 107.72357109 27.71662545 107.72405651 25.15185547 107.71972656 C21.21871204 107.71656858 17.28632171 107.74000952 13.35327148 107.76538086 C10.86564223 107.76765387 8.37801094 107.76835734 5.89038086 107.76733398 C4.70908096 107.77654373 3.52778107 107.78575348 2.3106842 107.79524231 C1.21622482 107.78901352 0.12176544 107.78278473 -1.00585938 107.77636719 C-2.45242165 107.77731133 -2.45242165 107.77731133 -3.9282074 107.77827454 C-6.85916033 107.32789126 -7.55170868 106.6985567 -9.36352539 104.40405273 C-9.74384212 102.46593475 -9.74384212 102.46593475 -9.75120544 100.22912598 C-9.76111008 99.3795079 -9.77101471 98.52988983 -9.78121948 97.65452576 C-9.77671783 96.72560013 -9.77221619 95.7966745 -9.76757812 94.83959961 C-9.77444138 93.85886978 -9.78130463 92.87813995 -9.78837585 91.86769104 C-9.80670812 88.61924853 -9.80279747 85.37128597 -9.79711914 82.12280273 C-9.80167755 79.86983075 -9.80698209 77.61686015 -9.81300354 75.3638916 C-9.82194707 70.63942825 -9.81949698 65.91513383 -9.80957031 61.19067383 C-9.7980738 55.12733135 -9.81829673 49.06457064 -9.84748745 43.00130463 C-9.86580566 38.34824909 -9.86556582 33.69533412 -9.85984993 29.04225159 C-9.85969621 26.80627119 -9.86578235 24.57028157 -9.8781414 22.33433533 C-9.8929683 19.21201731 -9.88243549 16.09078905 -9.86523438 12.96850586 C-9.87490234 12.03958023 -9.88457031 11.1106546 -9.89453125 10.15357971 C-9.82290415 3.96537193 -9.82290415 3.96537193 -7.66738892 1.33152771 C-4.95595433 0.23997532 -2.92541772 0.01679035 0 0 Z " fill="#4E5963" transform="translate(64.363525390625,33.595947265625)"/>
<path d="M0 0 C17.49 0 34.98 0 53 0 C53 14.19 53 28.38 53 43 C49.7 43 46.4 43 43 43 C43 42.01 43 41.02 43 40 C35.08 40 27.16 40 19 40 C19 47.26 19 54.52 19 62 C26.59 62 34.18 62 42 62 C42 61.01 42 60.02 42 59 C45.63 59.66 49.26 60.32 53 61 C53 64.3 53 67.6 53 71 C35.51 71 18.02 71 0 71 C0 47.57 0 24.14 0 0 Z " fill="#FCFCFD" transform="translate(59,51)"/>
<path d="M0 0 C5.86728455 1.98891002 9.13541473 4.50954489 12 10 C12 10.66 12 11.32 12 12 C14.31 12 16.62 12 19 12 C19 24.54 19 37.08 19 50 C4.81 50 -9.38 50 -24 50 C-24 37.46 -24 24.92 -24 12 C-21.69 12 -19.38 12 -17 12 C-16.835 11.13375 -16.67 10.2675 -16.5 9.375 C-13.46613707 2.54880842 -7.51512508 -1.34198662 0 0 Z " fill="#F7F7F8" transform="translate(143,34)"/>
<path d="M0 0 C2.97 0 5.94 0 9 0 C9.33 8.25 9.66 16.5 10 25 C11.65 24.01 13.3 23.02 15 22 C21.82897664 21.05101415 28.04553212 21.47592717 34 25 C39.30272197 29.57962352 42.59123498 34.30706314 43.203125 41.33203125 C43.33894543 48.51919585 41.93685303 53.17772844 37.8125 59.1875 C33.12105558 63.87894442 28.68909436 66.1917468 22 66.5 C16.85160828 66.30872848 13.39361226 64.60362208 9 62 C9 62.99 9 63.98 9 65 C6.03 65 3.06 65 0 65 C0 43.55 0 22.1 0 0 Z " fill="#4A545F" transform="translate(336,56)"/>
<path d="M0 0 C3.3 0 6.6 0 10 0 C10.33 1.32 10.66 2.64 11 4 C11.69351562 3.3503125 12.38703125 2.700625 13.1015625 2.03125 C18.01273738 -1.41054372 23.22305733 -0.71767676 29 0 C33.13805979 1.4209418 35.54250432 3.31375648 38 7 C38.5775 6.21625 39.155 5.4325 39.75 4.625 C42.69129053 1.19349438 44.52130583 0.16429935 49.0234375 -0.3359375 C60.41057088 -0.46865467 60.41057088 -0.46865467 65 4 C68.56753216 9.04375237 69.12256418 12.97177509 69.09765625 19.07421875 C69.0962413 19.7580513 69.09482635 20.44188385 69.09336853 21.1464386 C69.08777876 23.32683722 69.07522822 25.50713251 69.0625 27.6875 C69.05748367 29.16731622 69.052921 30.64713406 69.04882812 32.12695312 C69.03781271 35.75133557 69.02055512 39.3756577 69 43 C66.03 43 63.06 43 60 43 C59.98541748 42.11739502 59.97083496 41.23479004 59.95581055 40.32543945 C59.89457933 37.03561357 59.8203967 33.7466007 59.73754883 30.45727539 C59.70439443 29.03648798 59.67633308 27.61557187 59.65356445 26.19458008 C59.61984153 24.1460918 59.56752255 22.0987728 59.51171875 20.05078125 C59.48553467 18.82012939 59.45935059 17.58947754 59.43237305 16.3215332 C58.97023832 12.77136774 58.16776641 10.82502347 56 8 C52.61683996 7.02519118 49.43223503 7.29932044 46 8 C43.17575712 10.19022918 41.58491397 11.83017207 40 15 C39.84558791 17.10374996 39.75007361 19.21195119 39.68359375 21.3203125 C39.62075195 23.20556641 39.62075195 23.20556641 39.55664062 25.12890625 C39.51732422 26.44761719 39.47800781 27.76632813 39.4375 29.125 C39.39430488 30.46485751 39.35069027 31.80470156 39.30664062 33.14453125 C39.20029019 36.42957815 39.09826192 39.71470281 39 43 C36.03 43 33.06 43 30 43 C29.98541748 42.08186523 29.97083496 41.16373047 29.95581055 40.21777344 C29.89466485 36.80312091 29.82049783 33.38926328 29.73754883 29.97509766 C29.70434645 28.49896862 29.67629983 27.02271406 29.65356445 25.54638672 C29.61993049 23.42100668 29.56761481 21.29677196 29.51171875 19.171875 C29.48553467 17.8940918 29.45935059 16.61630859 29.43237305 15.29980469 C28.98144152 11.85836454 28.45433411 10.40645009 26 8 C23.63506188 7.40509733 23.63506188 7.40509733 21.0625 7.5625 C19.78052734 7.56443359 19.78052734 7.56443359 18.47265625 7.56640625 C15.53608334 8.08135031 14.1492621 8.95651814 12 11 C10.87816292 14.36551123 10.79199032 17.09060232 10.68359375 20.63671875 C10.64169922 21.93544922 10.59980469 23.23417969 10.55664062 24.57226562 C10.51683013 25.94400761 10.47711784 27.31575244 10.4375 28.6875 C10.39429165 30.07097645 10.35067661 31.45444027 10.30664062 32.83789062 C10.20041972 36.22515719 10.09837642 39.61249799 10 43 C6.7 43 3.4 43 0 43 C0 28.81 0 14.62 0 0 Z " fill="#4C5761" transform="translate(257,78)"/>
<path d="M0 0 C5.2827734 2.77432301 7.78199332 7.27896009 9.78515625 12.6875 C10.53515625 16.3125 10.53515625 16.3125 10.53515625 24.3125 C-0.68484375 24.3125 -11.90484375 24.3125 -23.46484375 24.3125 C-22.47484375 26.2925 -21.48484375 28.2725 -20.46484375 30.3125 C-20.13484375 31.3025 -19.80484375 32.2925 -19.46484375 33.3125 C-14.58804973 35.16157268 -8.08554388 35.37469527 -3.2578125 33.41796875 C-1.13700578 32.23171595 -1.13700578 32.23171595 1.53515625 30.3125 C4.01015625 32.2925 4.01015625 32.2925 6.53515625 34.3125 C6.41015625 36.0625 6.41015625 36.0625 5.53515625 38.3125 C-1.09635727 43.35821681 -6.37145052 43.87665073 -14.46484375 43.3125 C-21.09626547 42.26653443 -24.97197585 39.61109595 -29.08984375 34.33984375 C-33.19174719 28.2918668 -33.35881266 21.41864065 -32.46484375 14.3125 C-30.46367531 8.73072853 -27.50197712 4.54143165 -22.46484375 1.3125 C-21.91570312 0.95800781 -21.3665625 0.60351562 -20.80078125 0.23828125 C-14.97461313 -2.07075194 -5.96891478 -1.66486371 0 0 Z " fill="#4C5761" transform="translate(440.46484375,78.6875)"/>
<path d="M0 0 C3.3 0 6.6 0 10 0 C10.33 1.32 10.66 2.64 11 4 C11.7425 3.34 12.485 2.68 13.25 2 C18.01518397 -1.18813499 23.51110855 -0.61071457 29 0 C34.26986555 1.69388535 36.31451842 4.22581052 39 9 C40.17942085 12.53826255 40.11289189 15.34148726 40.09765625 19.07421875 C40.0962413 19.7580513 40.09482635 20.44188385 40.09336853 21.1464386 C40.08777876 23.32683722 40.07522822 25.50713251 40.0625 27.6875 C40.05748367 29.16731622 40.052921 30.64713406 40.04882812 32.12695312 C40.03781271 35.75133557 40.02055512 39.3756577 40 43 C37.03 43 34.06 43 31 43 C30.98018066 42.14768799 30.96036133 41.29537598 30.93994141 40.41723633 C30.86160496 37.23941676 30.77490335 34.06196418 30.68261719 30.88452148 C30.64445712 29.51221419 30.60958204 28.13981129 30.578125 26.76733398 C30.53219318 24.7886771 30.47326363 22.81033558 30.4140625 20.83203125 C30.36693115 19.04889526 30.36693115 19.04889526 30.31884766 17.22973633 C30.00709819 14.07190039 29.44752804 11.81242287 28 9 C25.56045342 7.78022671 23.84694151 7.79846187 21.125 7.75 C20.26132813 7.72421875 19.39765625 7.6984375 18.5078125 7.671875 C15.43044558 8.07452114 14.19232867 8.81716193 12 11 C10.10558042 14.85649701 9.70738968 18.12346304 9.5859375 22.39453125 C9.52792969 24.19760742 9.52792969 24.19760742 9.46875 26.03710938 C9.4378125 27.28298828 9.406875 28.52886719 9.375 29.8125 C9.31699219 31.71032227 9.31699219 31.71032227 9.2578125 33.64648438 C9.16369343 36.76417851 9.07805639 39.88186914 9 43 C6.03 43 3.06 43 0 43 C0 28.81 0 14.62 0 0 Z " fill="#4B5660" transform="translate(183,78)"/>
<path d="M0 0 C5.86728455 1.98891002 9.13541473 4.50954489 12 10 C12 10.66 12 11.32 12 12 C14.31 12 16.62 12 19 12 C19 24.54 19 37.08 19 50 C4.81 50 -9.38 50 -24 50 C-24 37.46 -24 24.92 -24 12 C-21.69 12 -19.38 12 -17 12 C-16.835 11.13375 -16.67 10.2675 -16.5 9.375 C-13.46613707 2.54880842 -7.51512508 -1.34198662 0 0 Z M-21 15 C-21 25.56 -21 36.12 -21 47 C-8.79 47 3.42 47 16 47 C16 36.77 16 26.54 16 16 C14.68 15.67 13.36 15.34 12 15 C12 16.98 12 18.96 12 21 C11.01 21 10.02 21 9 21 C9 19.35 9 17.7 9 16 C1.41 16 -6.18 16 -14 16 C-14 17.65 -14 19.3 -14 21 C-14.99 21 -15.98 21 -17 21 C-17 19.02 -17 17.04 -17 15 C-18.32 15 -19.64 15 -21 15 Z " fill="#4B5660" transform="translate(143,34)"/>
<path d="M0 0 C4.04258576 1.87156748 5.61840231 3.35128392 7.875 7.1875 C9.63302027 13.14523534 10.13603241 17.72793518 7.3125 23.375 C3.97920254 27.15874306 1.4430781 28.63267103 -3.4375 29.875 C-7.68017561 30.02386581 -9.51621391 29.39994153 -13 27 C-16.89958707 23.10041293 -17.299376 19.75227147 -17.4375 14.4375 C-17.43189263 9.6768428 -16.81264894 6.87338029 -14 3 C-9.77630698 -0.60256169 -5.31218714 -0.82446644 0 0 Z " fill="#FBFBFB" transform="translate(361,85)"/>
<path d="M0 0 C2.97 0 5.94 0 9 0 C9 22.11 9 44.22 9 67 C6.03 67 3.06 67 0 67 C0 44.89 0 22.78 0 0 Z " fill="#4F5963" transform="translate(389,54)"/>
<path d="M0 0 C1.0176796 -0.00315216 2.03535919 -0.00630432 3.08387756 -0.009552 C4.18598068 -0.00752777 5.2880838 -0.00550354 6.42358398 -0.00341797 C7.55038071 -0.00437469 8.67717743 -0.00533142 9.83811951 -0.00631714 C12.22297217 -0.0069985 14.60782667 -0.00514728 16.99267578 -0.00097656 C20.65783825 0.00437724 24.32287845 -0.00092563 27.98803711 -0.00732422 C30.29988634 -0.00666353 32.61173549 -0.00538255 34.92358398 -0.00341797 C36.02771133 -0.0054422 37.13183868 -0.00746643 38.26942444 -0.009552 C39.79121559 -0.00482376 39.79121559 -0.00482376 41.34375 0 C42.2415065 0.00079559 43.139263 0.00159119 44.06422424 0.00241089 C46.10717773 0.12939453 46.10717773 0.12939453 47.10717773 1.12939453 C47.10717773 4.42939453 47.10717773 7.72939453 47.10717773 11.12939453 C29.28717773 11.12939453 11.46717773 11.12939453 -6.89282227 11.12939453 C-6.89282227 7.82939453 -6.89282227 4.52939453 -6.89282227 1.12939453 C-4.41634371 -0.10884474 -2.76968485 0.00245233 0 0 Z " fill="#E9EBEC" transform="translate(64.892822265625,36.87060546875)"/>
<path d="M0 0 C-1.1240583 3.25976906 -1.92812978 3.96186478 -5.0625 5.625 C-6.031875 6.07875 -7.00125 6.5325 -8 7 C-8.33 7.66 -8.66 8.32 -9 9 C-4.49186474 10.27955991 -0.15577726 10.18398886 4.5 10.1875 C5.35464844 10.19974609 6.20929688 10.21199219 7.08984375 10.22460938 C7.91613281 10.22654297 8.74242187 10.22847656 9.59375 10.23046875 C10.71813477 10.23663208 10.71813477 10.23663208 11.86523438 10.24291992 C14.28519361 9.96754716 15.85093044 9.1077367 18 8 C18.99 8 19.98 8 21 8 C19.95171474 11.04002726 19.140257 11.92077703 16.2890625 13.53125 C5.39629678 18.39547792 -6.10617218 18.27295291 -17.8125 18.25 C-18.83694214 18.24883682 -18.83694214 18.24883682 -19.88208008 18.24765015 C-31.581587 18.2092065 -31.581587 18.2092065 -34 17 C-34 14.03 -34 11.06 -34 8 C-33.13117188 7.97421875 -32.26234375 7.9484375 -31.3671875 7.921875 C-24.56064377 7.58687732 -20.54872594 7.13202996 -15 3 C-4.20144753 -1.40048251 -4.20144753 -1.40048251 0 0 Z " fill="#F8F8F9" transform="translate(136,90)"/>
<path d="M0 0 C2.97 0 5.94 0 9 0 C9 14.19 9 28.38 9 43 C6.03 43 3.06 43 0 43 C0 28.81 0 14.62 0 0 Z " fill="#4A545F" transform="translate(236,78)"/>
<path d="M0 0 C5.61 0 11.22 0 17 0 C17 5.28 17 10.56 17 16 C11.39 16 5.78 16 0 16 C0 10.72 0 5.44 0 0 Z " fill="#FAFAFB" transform="translate(81,94)"/>
<path d="M0 0 C7.59 0 15.18 0 23 0 C23 3.63 23 7.26 23 11 C15.41 11 7.82 11 0 11 C0.33 8.36 0.66 5.72 1 3 C0.67 2.01 0.34 1.02 0 0 Z " fill="#FDFDFE" transform="translate(89,126)"/>
<path d="M0 0 C7.59 0 15.18 0 23 0 C22.01 1.485 22.01 1.485 21 3 C21.30185427 5.95817184 21.66718829 8.33437658 23 11 C15.41 11 7.82 11 0 11 C0 7.37 0 3.74 0 0 Z " fill="#FEFEFE" transform="translate(59,126)"/>
<path d="M0 0 C17.82 0 35.64 0 54 0 C54 0.33 54 0.66 54 1 C46.74 1.33 39.48 1.66 32 2 C32.495 5.465 32.495 5.465 33 9 C32.67 9.66 32.34 10.32 32 11 C38.93 11.33 45.86 11.66 53 12 C53 12.33 53 12.66 53 13 C45.61271898 13.02526692 38.22544902 13.0428316 30.83813477 13.05493164 C28.32283105 13.05997363 25.80753028 13.06680703 23.29223633 13.07543945 C19.68570225 13.08751094 16.07920677 13.09322949 12.47265625 13.09765625 C10.77424339 13.10539818 10.77424339 13.10539818 9.04151917 13.11329651 C8.00051559 13.11337204 6.95951202 13.11344757 5.88696289 13.11352539 C4.96540909 13.115746 4.04385529 13.11796661 3.09437561 13.12025452 C1 13 1 13 0 12 C0 8.04 0 4.08 0 0 Z M1 1 C1 4.63 1 8.26 1 12 C8.59 12 16.18 12 24 12 C23.34 10.68 22.68 9.36 22 8 C22.31606103 5.34508736 22.80602623 3.38794754 24 1 C16.41 1 8.82 1 1 1 Z " fill="#7C838B" transform="translate(58,125)"/>
<path d="M0 0 C2.60699658 1.44833143 3.79765516 2.65106712 5.25 5.25 C5.25 6.57 5.25 7.89 5.25 9.25 C-2.34 9.25 -9.93 9.25 -17.75 9.25 C-16.75 3.25 -16.75 3.25 -13.625 0.875 C-9.00255589 -1.39833317 -4.94384928 -1.34832253 0 0 Z " fill="#FCFCFC" transform="translate(435.75,85.75)"/>
<path d="M0 0 C3 1.75 3 1.75 5 4 C5.33 5.32 5.66 6.64 6 8 C-0.93 8 -7.86 8 -15 8 C-11.87380359 0.18450896 -8.13932264 -1.32028228 0 0 Z " fill="#FBFBFB" transform="translate(145,38)"/>
<path d="M0 0 C2.9375 0.1875 2.9375 0.1875 3.9375 1.1875 C4.0625 4.6875 4.0625 4.6875 3.9375 8.1875 C2.9375 9.1875 2.9375 9.1875 0 9.375 C-3.0625 9.1875 -3.0625 9.1875 -5.0625 7.1875 C-5.3125 4.6875 -5.3125 4.6875 -5.0625 2.1875 C-3.0625 0.1875 -3.0625 0.1875 0 0 Z " fill="#4C5661" transform="translate(241.0625,57.8125)"/>
<path d="M0 0 C3.3 0 6.6 0 10 0 C10 0.99 10 1.98 10 3 C6.7 3 3.4 3 0 3 C0 2.01 0 1.02 0 0 Z " fill="#47525D" transform="translate(78,41)"/>
<path d="M0 0 C-0.625 1.875 -0.625 1.875 -2 4 C-5.125 5.25 -5.125 5.25 -8 6 C-7.75 4.125 -7.75 4.125 -7 2 C-4.41847698 0.27898465 -3.15081975 0 0 0 Z " fill="#E3E5E6" transform="translate(157,98)"/>
<path d="M0 0 C0.99 0 1.98 0 3 0 C3 1.65 3 3.3 3 5 C1.68 4.67 0.36 4.34 -1 4 C-0.67 2.68 -0.34 1.36 0 0 Z " fill="#ECEDEE" transform="translate(84,129)"/>
<path d="M0 0 C0.66 0.99 1.32 1.98 2 3 C1.125 5.6875 1.125 5.6875 0 8 C-1.65 8 -3.3 8 -5 8 C-4.0409375 7.13375 -4.0409375 7.13375 -3.0625 6.25 C-1.01776132 4.01937599 -0.41794801 2.92563609 0 0 Z " fill="#D5D7DA" transform="translate(139,90)"/>
</svg>
